<svg xmlns="http://www.w3.org/2000/svg" viewBox="0 0 1400 1900" width="1400" height="1900">
  <style>
    .actor-label { font-family: Arial, sans-serif; font-size: 12px; text-anchor: middle; font-weight: bold; }
    .usecase { fill: #fff; stroke: #333; stroke-width: 1.5; }
    .usecase-text { font-family: Arial, sans-serif; font-size: 10px; text-anchor: middle; dominant-baseline: middle; }
    .system-box { fill: #fafafa; stroke: #333; stroke-width: 2; }
    .system-title { font-family: Arial, sans-serif; font-size: 20px; text-anchor: middle; font-weight: bold; }
    .connector { stroke: #333; stroke-width: 1; fill: none; }
    .section-label { font-family: Arial, sans-serif; font-size: 11px; font-weight: bold; fill: #666; }
  </style>

  <!-- System Box -->
  <rect x="200" y="20" width="1000" height="1860" class="system-box" rx="5"/>
  <text x="700" y="55" class="system-title">CORETEX EDSS</text>

  <!-- ==================== SYSTEM ADMINISTRATOR ==================== -->
  
  <!-- System Admin Actor -->
  <g transform="translate(80, 280)">
    <circle cx="0" cy="0" r="18" fill="none" stroke="#333" stroke-width="2"/>
    <line x1="0" y1="18" x2="0" y2="55" stroke="#333" stroke-width="2"/>
    <line x1="-22" y1="35" x2="22" y2="35" stroke="#333" stroke-width="2"/>
    <line x1="0" y1="55" x2="-15" y2="85" stroke="#333" stroke-width="2"/>
    <line x1="0" y1="55" x2="15" y2="85" stroke="#333" stroke-width="2"/>
    <text x="0" y="105" class="actor-label">System</text>
    <text x="0" y="120" class="actor-label">Administrator</text>
  </g>

  <!-- Admin Use Cases -->
  <ellipse cx="400" cy="100" rx="80" ry="22" class="usecase"/>
  <text x="400" y="100" class="usecase-text">Login / Logout</text>

  <ellipse cx="400" cy="160" rx="95" ry="22" class="usecase"/>
  <text x="400" y="160" class="usecase-text">Create User Account</text>

  <ellipse cx="400" cy="220" rx="100" ry="22" class="usecase"/>
  <text x="400" y="220" class="usecase-text">Manage User Accounts</text>

  <ellipse cx="400" cy="280" rx="95" ry="22" class="usecase"/>
  <text x="400" y="280" class="usecase-text">Reset User Password</text>

  <ellipse cx="400" cy="340" rx="90" ry="22" class="usecase"/>
  <text x="400" y="340" class="usecase-text">Assign User to Branch</text>

  <ellipse cx="400" cy="400" rx="105" ry="22" class="usecase"/>
  <text x="400" y="400" class="usecase-text">Configure KPI Thresholds</text>

  <ellipse cx="400" cy="460" rx="110" ry="22" class="usecase"/>
  <text x="400" y="460" class="usecase-text">Configure Report Schedule</text>

  <ellipse cx="400" cy="520" rx="120" ry="22" class="usecase"/>
  <text x="400" y="520" class="usecase-text">View Branch Submission Status</text>

  <ellipse cx="400" cy="580" rx="85" ry="22" class="usecase"/>
  <text x="400" y="580" class="usecase-text">View Activity Logs</text>

  <ellipse cx="400" cy="640" rx="80" ry="22" class="usecase"/>
  <text x="400" y="640" class="usecase-text">View Audit Trail</text>

  <!-- Admin Lines -->
  <line x1="98" y1="280" x2="320" y2="100" class="connector"/>
  <line x1="98" y1="280" x2="305" y2="160" class="connector"/>
  <line x1="98" y1="280" x2="300" y2="220" class="connector"/>
  <line x1="98" y1="280" x2="305" y2="280" class="connector"/>
  <line x1="98" y1="280" x2="310" y2="340" class="connector"/>
  <line x1="98" y1="280" x2="295" y2="400" class="connector"/>
  <line x1="98" y1="280" x2="290" y2="460" class="connector"/>
  <line x1="98" y1="280" x2="280" y2="520" class="connector"/>
  <line x1="98" y1="280" x2="315" y2="580" class="connector"/>
  <line x1="98" y1="280" x2="320" y2="640" class="connector"/>

  <!-- ==================== BRANCH CASHIER ==================== -->

  <!-- Branch Cashier Actor -->
  <g transform="translate(1320, 280)">
    <circle cx="0" cy="0" r="18" fill="none" stroke="#333" stroke-width="2"/>
    <line x1="0" y1="18" x2="0" y2="55" stroke="#333" stroke-width="2"/>
    <line x1="-22" y1="35" x2="22" y2="35" stroke="#333" stroke-width="2"/>
    <line x1="0" y1="55" x2="-15" y2="85" stroke="#333" stroke-width="2"/>
    <line x1="0" y1="55" x2="15" y2="85" stroke="#333" stroke-width="2"/>
    <text x="0" y="105" class="actor-label">Branch</text>
    <text x="0" y="120" class="actor-label">Cashier</text>
  </g>

  <!-- Branch Cashier Use Cases -->
  <ellipse cx="1000" cy="100" rx="80" ry="22" class="usecase"/>
  <text x="1000" y="100" class="usecase-text">Login / Logout</text>

  <ellipse cx="1000" cy="160" rx="105" ry="22" class="usecase"/>
  <text x="1000" y="160" class="usecase-text">Record POS Transaction</text>

  <ellipse cx="1000" cy="220" rx="95" ry="22" class="usecase"/>
  <text x="1000" y="220" class="usecase-text">Enter Product Name</text>

  <ellipse cx="1000" cy="280" rx="85" ry="22" class="usecase"/>
  <text x="1000" y="280" class="usecase-text">Enter Quantity</text>

  <ellipse cx="1000" cy="340" rx="85" ry="22" class="usecase"/>
  <text x="1000" y="340" class="usecase-text">Enter Unit Price</text>

  <ellipse cx="1000" cy="400" rx="100" ry="22" class="usecase"/>
  <text x="1000" y="400" class="usecase-text">View Daily Sales Summary</text>

  <ellipse cx="1000" cy="460" rx="105" ry="22" class="usecase"/>
  <text x="1000" y="460" class="usecase-text">View Transaction History</text>

  <!-- Branch Cashier Lines -->
  <line x1="1302" y1="280" x2="1080" y2="100" class="connector"/>
  <line x1="1302" y1="280" x2="1105" y2="160" class="connector"/>
  <line x1="1302" y1="280" x2="1095" y2="220" class="connector"/>
  <line x1="1302" y1="280" x2="1085" y2="280" class="connector"/>
  <line x1="1302" y1="280" x2="1085" y2="340" class="connector"/>
  <line x1="1302" y1="280" x2="1100" y2="400" class="connector"/>
  <line x1="1302" y1="280" x2="1105" y2="460" class="connector"/>

  <!-- ==================== FINANCE OFFICER ==================== -->

  <!-- Finance Officer Actor -->
  <g transform="translate(80, 880)">
    <circle cx="0" cy="0" r="18" fill="none" stroke="#333" stroke-width="2"/>
    <line x1="0" y1="18" x2="0" y2="55" stroke="#333" stroke-width="2"/>
    <line x1="-22" y1="35" x2="22" y2="35" stroke="#333" stroke-width="2"/>
    <line x1="0" y1="55" x2="-15" y2="85" stroke="#333" stroke-width="2"/>
    <line x1="0" y1="55" x2="15" y2="85" stroke="#333" stroke-width="2"/>
    <text x="0" y="105" class="actor-label">Finance</text>
    <text x="0" y="120" class="actor-label">Officer</text>
  </g>

  <!-- Finance Officer Use Cases -->
  <ellipse cx="400" cy="720" rx="80" ry="22" class="usecase"/>
  <text x="400" y="720" class="usecase-text">Login / Logout</text>

  <ellipse cx="400" cy="780" rx="110" ry="22" class="usecase"/>
  <text x="400" y="780" class="usecase-text">Log Cost of Goods (COGS)</text>

  <ellipse cx="400" cy="840" rx="115" ry="22" class="usecase"/>
  <text x="400" y="840" class="usecase-text">Enter Amount in USD/CNY</text>

  <ellipse cx="400" cy="900" rx="115" ry="22" class="usecase"/>
  <text x="400" y="900" class="usecase-text">View Currency Conversion</text>

  <ellipse cx="400" cy="960" rx="80" ry="22" class="usecase"/>
  <text x="400" y="960" class="usecase-text">Log Rent Expense</text>

  <ellipse cx="400" cy="1020" rx="90" ry="22" class="usecase"/>
  <text x="400" y="1020" class="usecase-text">Log Salaries Expense</text>

  <ellipse cx="400" cy="1080" rx="90" ry="22" class="usecase"/>
  <text x="400" y="1080" class="usecase-text">Log Utilities Expense</text>

  <ellipse cx="400" cy="1140" rx="115" ry="22" class="usecase"/>
  <text x="400" y="1140" class="usecase-text">Review Aggregated Sales Data</text>

  <ellipse cx="400" cy="1200" rx="105" ry="22" class="usecase"/>
  <text x="400" y="1200" class="usecase-text">Confirm &amp; Submit to EDSS</text>

  <ellipse cx="400" cy="1260" rx="100" ry="22" class="usecase"/>
  <text x="400" y="1260" class="usecase-text">View Submission History</text>

  <!-- Finance Officer Lines -->
  <line x1="98" y1="880" x2="320" y2="720" class="connector"/>
  <line x1="98" y1="880" x2="290" y2="780" class="connector"/>
  <line x1="98" y1="880" x2="285" y2="840" class="connector"/>
  <line x1="98" y1="880" x2="285" y2="900" class="connector"/>
  <line x1="98" y1="880" x2="320" y2="960" class="connector"/>
  <line x1="98" y1="880" x2="310" y2="1020" class="connector"/>
  <line x1="98" y1="880" x2="310" y2="1080" class="connector"/>
  <line x1="98" y1="880" x2="285" y2="1140" class="connector"/>
  <line x1="98" y1="880" x2="295" y2="1200" class="connector"/>
  <line x1="98" y1="880" x2="300" y2="1260" class="connector"/>

  <!-- ==================== BUSINESS OWNER / CEO ==================== -->

  <!-- CEO Actor -->
  <g transform="translate(1320, 1100)">
    <circle cx="0" cy="0" r="18" fill="none" stroke="#333" stroke-width="2"/>
    <line x1="0" y1="18" x2="0" y2="55" stroke="#333" stroke-width="2"/>
    <line x1="-22" y1="35" x2="22" y2="35" stroke="#333" stroke-width="2"/>
    <line x1="0" y1="55" x2="-15" y2="85" stroke="#333" stroke-width="2"/>
    <line x1="0" y1="55" x2="15" y2="85" stroke="#333" stroke-width="2"/>
    <text x="0" y="105" class="actor-label">Business Owner</text>
    <text x="0" y="120" class="actor-label">/ CEO</text>
  </g>

  <!-- CEO Use Cases - Right Side -->
  <ellipse cx="1000" cy="580" rx="80" ry="22" class="usecase"/>
  <text x="1000" y="580" class="usecase-text">Login / Logout</text>

  <ellipse cx="1000" cy="640" rx="95" ry="22" class="usecase"/>
  <text x="1000" y="640" class="usecase-text">View KPI Dashboard</text>

  <ellipse cx="1000" cy="700" rx="115" ry="22" class="usecase"/>
  <text x="1000" y="700" class="usecase-text">View All Branches Consolidated</text>

  <ellipse cx="1000" cy="760" rx="100" ry="22" class="usecase"/>
  <text x="1000" y="760" class="usecase-text">View Profit Margin</text>

  <ellipse cx="1000" cy="820" rx="95" ry="22" class="usecase"/>
  <text x="1000" y="820" class="usecase-text">View Expense Ratio</text>

  <ellipse cx="1000" cy="880" rx="100" ry="22" class="usecase"/>
  <text x="1000" y="880" class="usecase-text">View Revenue Forecast</text>

  <ellipse cx="1000" cy="940" rx="95" ry="22" class="usecase"/>
  <text x="1000" y="940" class="usecase-text">View Expense Trend</text>

  <ellipse cx="1000" cy="1000" rx="90" ry="22" class="usecase"/>
  <text x="1000" y="1000" class="usecase-text">View Risk Score</text>

  <ellipse cx="1000" cy="1060" rx="120" ry="22" class="usecase"/>
  <text x="1000" y="1060" class="usecase-text">View Business Health Summary</text>

  <ellipse cx="1000" cy="1120" rx="120" ry="22" class="usecase"/>
  <text x="1000" y="1120" class="usecase-text">Compare Branch Performance</text>

  <ellipse cx="1000" cy="1180" rx="125" ry="22" class="usecase"/>
  <text x="1000" y="1180" class="usecase-text">View Month-over-Month Analysis</text>

  <ellipse cx="1000" cy="1240" rx="100" ry="22" class="usecase"/>
  <text x="1000" y="1240" class="usecase-text">View Interactive Charts</text>

  <ellipse cx="1000" cy="1300" rx="110" ry="22" class="usecase"/>
  <text x="1000" y="1300" class="usecase-text">View Predictive Trend Analysis</text>

  <ellipse cx="1000" cy="1360" rx="95" ry="22" class="usecase"/>
  <text x="1000" y="1360" class="usecase-text">View Live News Feed</text>

  <ellipse cx="1000" cy="1420" rx="105" ry="22" class="usecase"/>
  <text x="1000" y="1420" class="usecase-text">Receive SMS KPI Alert</text>

  <ellipse cx="1000" cy="1480" rx="115" ry="22" class="usecase"/>
  <text x="1000" y="1480" class="usecase-text">Generate Executive Report</text>

  <ellipse cx="1000" cy="1540" rx="110" ry="22" class="usecase"/>
  <text x="1000" y="1540" class="usecase-text">Download PDF Report</text>

  <ellipse cx="1000" cy="1600" rx="115" ry="22" class="usecase"/>
  <text x="1000" y="1600" class="usecase-text">Receive Auto-Emailed Report</text>

  <!-- CEO Lines -->
  <line x1="1302" y1="1100" x2="1080" y2="580" class="connector"/>
  <line x1="1302" y1="1100" x2="1095" y2="640" class="connector"/>
  <line x1="1302" y1="1100" x2="1115" y2="700" class="connector"/>
  <line x1="1302" y1="1100" x2="1100" y2="760" class="connector"/>
  <line x1="1302" y1="1100" x2="1095" y2="820" class="connector"/>
  <line x1="1302" y1="1100" x2="1100" y2="880" class="connector"/>
  <line x1="1302" y1="1100" x2="1095" y2="940" class="connector"/>
  <line x1="1302" y1="1100" x2="1090" y2="1000" class="connector"/>
  <line x1="1302" y1="1100" x2="1120" y2="1060" class="connector"/>
  <line x1="1302" y1="1100" x2="1120" y2="1120" class="connector"/>
  <line x1="1302" y1="1100" x2="1125" y2="1180" class="connector"/>
  <line x1="1302" y1="1100" x2="1100" y2="1240" class="connector"/>
  <line x1="1302" y1="1100" x2="1110" y2="1300" class="connector"/>
  <line x1="1302" y1="1100" x2="1095" y2="1360" class="connector"/>
  <line x1="1302" y1="1100" x2="1105" y2="1420" class="connector"/>
  <line x1="1302" y1="1100" x2="1115" y2="1480" class="connector"/>
  <line x1="1302" y1="1100" x2="1110" y2="1540" class="connector"/>
  <line x1="1302" y1="1100" x2="1115" y2="1600" class="connector"/>

  <!-- ==================== SYSTEM (APIs) ==================== -->

  <!-- System Actor (APIs) -->
  <g transform="translate(700, 1820)">
    <circle cx="0" cy="0" r="18" fill="none" stroke="#333" stroke-width="2"/>
    <line x1="0" y1="18" x2="0" y2="55" stroke="#333" stroke-width="2"/>
    <line x1="-22" y1="35" x2="22" y2="35" stroke="#333" stroke-width="2"/>
    <line x1="0" y1="55" x2="-15" y2="85" stroke="#333" stroke-width="2"/>
    <line x1="0" y1="55" x2="15" y2="85" stroke="#333" stroke-width="2"/>
    <text x="0" y="-30" class="actor-label">System</text>
    <text x="0" y="-15" class="actor-label">(APIs)</text>
  </g>

  <!-- System Use Cases -->
  <ellipse cx="400" cy="1380" rx="115" ry="22" class="usecase"/>
  <text x="400" y="1380" class="usecase-text">Convert Currency (Exchange Rate API)</text>

  <ellipse cx="400" cy="1440" rx="105" ry="22" class="usecase"/>
  <text x="400" y="1440" class="usecase-text">Log User Location (IPGeolocation)</text>

  <ellipse cx="700" cy="1680" rx="110" ry="22" class="usecase"/>
  <text x="700" y="1680" class="usecase-text">Compute KPIs &amp; Analytics</text>

  <ellipse cx="700" cy="1740" rx="105" ry="22" class="usecase"/>
  <text x="700" y="1740" class="usecase-text">Send SMS Alert (Twilio)</text>

  <ellipse cx="1000" cy="1680" rx="110" ry="22" class="usecase"/>
  <text x="1000" y="1680" class="usecase-text">Send Email Report (SendGrid)</text>

  <ellipse cx="1000" cy="1740" rx="100" ry="22" class="usecase"/>
  <text x="1000" y="1740" class="usecase-text">Fetch News (NewsAPI)</text>

  <!-- System Lines -->
  <line x1="700" y1="1802" x2="400" y2="1402" class="connector"/>
  <line x1="700" y1="1802" x2="400" y2="1462" class="connector"/>
  <line x1="700" y1="1802" x2="700" y2="1702" class="connector"/>
  <line x1="700" y1="1802" x2="700" y2="1762" class="connector"/>
  <line x1="700" y1="1802" x2="890" y2="1680" class="connector"/>
  <line x1="700" y1="1802" x2="900" y2="1740" class="connector"/>

</svg>
