<svg xmlns="http://www.w3.org/2000/svg" viewBox="0 0 1200 1700" width="1200" height="1700">
  <style>
    .actor-label { font-family: Arial, sans-serif; font-size: 12px; text-anchor: middle; font-weight: bold; }
    .usecase { fill: #fff; stroke: #333; stroke-width: 1.5; }
    .usecase-text { font-family: Arial, sans-serif; font-size: 10px; text-anchor: middle; dominant-baseline: middle; }
    .system-box { fill: #fafafa; stroke: #333; stroke-width: 2; }
    .system-title { font-family: Arial, sans-serif; font-size: 20px; text-anchor: middle; font-weight: bold; }
    .connector { stroke: #333; stroke-width: 1; fill: none; }
  </style>

  <!-- System Box -->
  <rect x="200" y="20" width="800" height="1660" class="system-box" rx="5"/>
  <text x="600" y="55" class="system-title">CORETEX EDSS</text>

  <!-- ==================== SYSTEM ADMINISTRATOR ==================== -->
  
  <!-- System Admin Actor - positioned at center-left of their use cases -->
  <g transform="translate(80, 420)">
    <circle cx="0" cy="0" r="18" fill="none" stroke="#333" stroke-width="2"/>
    <line x1="0" y1="18" x2="0" y2="55" stroke="#333" stroke-width="2"/>
    <line x1="-22" y1="35" x2="22" y2="35" stroke="#333" stroke-width="2"/>
    <line x1="0" y1="55" x2="-15" y2="85" stroke="#333" stroke-width="2"/>
    <line x1="0" y1="55" x2="15" y2="85" stroke="#333" stroke-width="2"/>
    <text x="0" y="105" class="actor-label">System</text>
    <text x="0" y="120" class="actor-label">Administrator</text>
  </g>

  <!-- Admin Use Cases - stacked vertically on left side -->
  <ellipse cx="400" cy="100" rx="80" ry="22" class="usecase"/>
  <text x="400" y="100" class="usecase-text">Login / Logout</text>

  <ellipse cx="400" cy="160" rx="95" ry="22" class="usecase"/>
  <text x="400" y="160" class="usecase-text">Create User Account</text>

  <ellipse cx="400" cy="220" rx="100" ry="22" class="usecase"/>
  <text x="400" y="220" class="usecase-text">Manage User Accounts</text>

  <ellipse cx="400" cy="280" rx="95" ry="22" class="usecase"/>
  <text x="400" y="280" class="usecase-text">Reset User Password</text>

  <ellipse cx="400" cy="340" rx="75" ry="22" class="usecase"/>
  <text x="400" y="340" class="usecase-text">Create Branch</text>

  <ellipse cx="400" cy="400" rx="85" ry="22" class="usecase"/>
  <text x="400" y="400" class="usecase-text">Manage Branches</text>

  <ellipse cx="400" cy="460" rx="105" ry="22" class="usecase"/>
  <text x="400" y="460" class="usecase-text">Configure KPI Thresholds</text>

  <ellipse cx="400" cy="520" rx="90" ry="22" class="usecase"/>
  <text x="400" y="520" class="usecase-text">Set Goals / Targets</text>

  <ellipse cx="400" cy="580" rx="110" ry="22" class="usecase"/>
  <text x="400" y="580" class="usecase-text">Configure Report Schedule</text>

  <ellipse cx="400" cy="640" rx="120" ry="22" class="usecase"/>
  <text x="400" y="640" class="usecase-text">View Branch Submission Status</text>

  <ellipse cx="400" cy="700" rx="85" ry="22" class="usecase"/>
  <text x="400" y="700" class="usecase-text">View Activity Log</text>

  <ellipse cx="400" cy="760" rx="80" ry="22" class="usecase"/>
  <text x="400" y="760" class="usecase-text">View Audit Log</text>

  <!-- Admin Lines - simple straight lines to left edge of ellipse -->
  <line x1="98" y1="420" x2="320" y2="100" class="connector"/>
  <line x1="98" y1="420" x2="305" y2="160" class="connector"/>
  <line x1="98" y1="420" x2="300" y2="220" class="connector"/>
  <line x1="98" y1="420" x2="305" y2="280" class="connector"/>
  <line x1="98" y1="420" x2="325" y2="340" class="connector"/>
  <line x1="98" y1="420" x2="315" y2="400" class="connector"/>
  <line x1="98" y1="420" x2="295" y2="460" class="connector"/>
  <line x1="98" y1="420" x2="310" y2="520" class="connector"/>
  <line x1="98" y1="420" x2="290" y2="580" class="connector"/>
  <line x1="98" y1="420" x2="280" y2="640" class="connector"/>
  <line x1="98" y1="420" x2="315" y2="700" class="connector"/>
  <line x1="98" y1="420" x2="320" y2="760" class="connector"/>

  <!-- ==================== FINANCE OFFICER ==================== -->

  <!-- Finance Officer Actor - positioned at center-right of their use cases -->
  <g transform="translate(1120, 450)">
    <circle cx="0" cy="0" r="18" fill="none" stroke="#333" stroke-width="2"/>
    <line x1="0" y1="18" x2="0" y2="55" stroke="#333" stroke-width="2"/>
    <line x1="-22" y1="35" x2="22" y2="35" stroke="#333" stroke-width="2"/>
    <line x1="0" y1="55" x2="-15" y2="85" stroke="#333" stroke-width="2"/>
    <line x1="0" y1="55" x2="15" y2="85" stroke="#333" stroke-width="2"/>
    <text x="0" y="105" class="actor-label">Finance</text>
    <text x="0" y="120" class="actor-label">Officer</text>
  </g>

  <!-- Finance Officer Use Cases - stacked vertically on right side -->
  <ellipse cx="800" cy="100" rx="80" ry="22" class="usecase"/>
  <text x="800" y="100" class="usecase-text">Login / Logout</text>

  <ellipse cx="800" cy="160" rx="120" ry="22" class="usecase"/>
  <text x="800" y="160" class="usecase-text">Submit Monthly Business Data</text>

  <ellipse cx="800" cy="220" rx="115" ry="22" class="usecase"/>
  <text x="800" y="220" class="usecase-text">Enter Imported Costs (USD/CNY)</text>

  <ellipse cx="800" cy="280" rx="105" ry="22" class="usecase"/>
  <text x="800" y="280" class="usecase-text">View Currency Conversion</text>

  <ellipse cx="800" cy="340" rx="95" ry="22" class="usecase"/>
  <text x="800" y="340" class="usecase-text">Edit Submitted Data</text>

  <ellipse cx="800" cy="400" rx="105" ry="22" class="usecase"/>
  <text x="800" y="400" class="usecase-text">View Submission History</text>

  <ellipse cx="800" cy="460" rx="100" ry="22" class="usecase"/>
  <text x="800" y="460" class="usecase-text">View Branch Dashboard</text>

  <ellipse cx="800" cy="520" rx="85" ry="22" class="usecase"/>
  <text x="800" y="520" class="usecase-text">View Branch KPIs</text>

  <ellipse cx="800" cy="580" rx="105" ry="22" class="usecase"/>
  <text x="800" y="580" class="usecase-text">Generate Branch Report</text>

  <ellipse cx="800" cy="640" rx="100" ry="22" class="usecase"/>
  <text x="800" y="640" class="usecase-text">View Interactive Charts</text>

  <ellipse cx="800" cy="700" rx="105" ry="22" class="usecase"/>
  <text x="800" y="700" class="usecase-text">View In-App Notifications</text>

  <ellipse cx="800" cy="760" rx="95" ry="22" class="usecase"/>
  <text x="800" y="760" class="usecase-text">Export Report (PDF)</text>

  <ellipse cx="800" cy="820" rx="105" ry="22" class="usecase"/>
  <text x="800" y="820" class="usecase-text">Export Data (CSV/Excel)</text>

  <!-- Finance Officer Lines - simple straight lines to right edge of ellipse -->
  <line x1="1102" y1="450" x2="880" y2="100" class="connector"/>
  <line x1="1102" y1="450" x2="920" y2="160" class="connector"/>
  <line x1="1102" y1="450" x2="915" y2="220" class="connector"/>
  <line x1="1102" y1="450" x2="905" y2="280" class="connector"/>
  <line x1="1102" y1="450" x2="895" y2="340" class="connector"/>
  <line x1="1102" y1="450" x2="905" y2="400" class="connector"/>
  <line x1="1102" y1="450" x2="900" y2="460" class="connector"/>
  <line x1="1102" y1="450" x2="885" y2="520" class="connector"/>
  <line x1="1102" y1="450" x2="905" y2="580" class="connector"/>
  <line x1="1102" y1="450" x2="900" y2="640" class="connector"/>
  <line x1="1102" y1="450" x2="905" y2="700" class="connector"/>
  <line x1="1102" y1="450" x2="895" y2="760" class="connector"/>
  <line x1="1102" y1="450" x2="905" y2="820" class="connector"/>

  <!-- ==================== BUSINESS OWNER / CEO ==================== -->

  <!-- CEO Actor - positioned at center-left of their use cases -->
  <g transform="translate(80, 1200)">
    <circle cx="0" cy="0" r="18" fill="none" stroke="#333" stroke-width="2"/>
    <line x1="0" y1="18" x2="0" y2="55" stroke="#333" stroke-width="2"/>
    <line x1="-22" y1="35" x2="22" y2="35" stroke="#333" stroke-width="2"/>
    <line x1="0" y1="55" x2="-15" y2="85" stroke="#333" stroke-width="2"/>
    <line x1="0" y1="55" x2="15" y2="85" stroke="#333" stroke-width="2"/>
    <text x="0" y="105" class="actor-label">Business Owner</text>
    <text x="0" y="120" class="actor-label">/ CEO</text>
  </g>

  <!-- CEO Use Cases - Left Column -->
  <ellipse cx="400" cy="920" rx="80" ry="22" class="usecase"/>
  <text x="400" y="920" class="usecase-text">Login / Logout</text>

  <ellipse cx="400" cy="980" rx="95" ry="22" class="usecase"/>
  <text x="400" y="980" class="usecase-text">View KPI Dashboard</text>

  <ellipse cx="400" cy="1040" rx="100" ry="22" class="usecase"/>
  <text x="400" y="1040" class="usecase-text">View All Branches Data</text>

  <ellipse cx="400" cy="1100" rx="115" ry="22" class="usecase"/>
  <text x="400" y="1100" class="usecase-text">Compare Branch Performance</text>

  <ellipse cx="400" cy="1160" rx="100" ry="22" class="usecase"/>
  <text x="400" y="1160" class="usecase-text">View Branch Rankings</text>

  <ellipse cx="400" cy="1220" rx="100" ry="22" class="usecase"/>
  <text x="400" y="1220" class="usecase-text">View Revenue Forecast</text>

  <ellipse cx="400" cy="1280" rx="95" ry="22" class="usecase"/>
  <text x="400" y="1280" class="usecase-text">View Expense Trend</text>

  <ellipse cx="400" cy="1340" rx="90" ry="22" class="usecase"/>
  <text x="400" y="1340" class="usecase-text">View Risk Scoring</text>

  <ellipse cx="400" cy="1400" rx="120" ry="22" class="usecase"/>
  <text x="400" y="1400" class="usecase-text">View Business Health Summary</text>

  <ellipse cx="400" cy="1460" rx="125" ry="22" class="usecase"/>
  <text x="400" y="1460" class="usecase-text">View Year-over-Year Comparison</text>

  <!-- CEO Use Cases - Right Column -->
  <ellipse cx="800" cy="920" rx="90" ry="22" class="usecase"/>
  <text x="800" y="920" class="usecase-text">Set Goals / Targets</text>

  <ellipse cx="800" cy="980" rx="120" ry="22" class="usecase"/>
  <text x="800" y="980" class="usecase-text">Use What-If Scenario Analysis</text>

  <ellipse cx="800" cy="1040" rx="100" ry="22" class="usecase"/>
  <text x="800" y="1040" class="usecase-text">View Goals &amp; Progress</text>

  <ellipse cx="800" cy="1100" rx="100" ry="22" class="usecase"/>
  <text x="800" y="1100" class="usecase-text">View Recommendations</text>

  <ellipse cx="800" cy="1160" rx="95" ry="22" class="usecase"/>
  <text x="800" y="1160" class="usecase-text">View News Headlines</text>

  <ellipse cx="800" cy="1220" rx="100" ry="22" class="usecase"/>
  <text x="800" y="1220" class="usecase-text">View Interactive Charts</text>

  <ellipse cx="800" cy="1280" rx="110" ry="22" class="usecase"/>
  <text x="800" y="1280" class="usecase-text">View In-App Notifications</text>

  <ellipse cx="800" cy="1340" rx="105" ry="22" class="usecase"/>
  <text x="800" y="1340" class="usecase-text">Receive SMS KPI Alert</text>

  <ellipse cx="800" cy="1400" rx="110" ry="22" class="usecase"/>
  <text x="800" y="1400" class="usecase-text">Generate Executive Report</text>

  <ellipse cx="800" cy="1460" rx="95" ry="22" class="usecase"/>
  <text x="800" y="1460" class="usecase-text">Export Report (PDF)</text>

  <ellipse cx="800" cy="1520" rx="105" ry="22" class="usecase"/>
  <text x="800" y="1520" class="usecase-text">Export Data (CSV/Excel)</text>

  <!-- CEO Lines - Left Column (straight lines to left edge) -->
  <line x1="98" y1="1200" x2="320" y2="920" class="connector"/>
  <line x1="98" y1="1200" x2="305" y2="980" class="connector"/>
  <line x1="98" y1="1200" x2="300" y2="1040" class="connector"/>
  <line x1="98" y1="1200" x2="285" y2="1100" class="connector"/>
  <line x1="98" y1="1200" x2="300" y2="1160" class="connector"/>
  <line x1="98" y1="1200" x2="300" y2="1220" class="connector"/>
  <line x1="98" y1="1200" x2="305" y2="1280" class="connector"/>
  <line x1="98" y1="1200" x2="310" y2="1340" class="connector"/>
  <line x1="98" y1="1200" x2="280" y2="1400" class="connector"/>
  <line x1="98" y1="1200" x2="275" y2="1460" class="connector"/>

  <!-- CEO Lines - Right Column (straight lines to left edge of right column) -->
  <line x1="98" y1="1200" x2="710" y2="920" class="connector"/>
  <line x1="98" y1="1200" x2="680" y2="980" class="connector"/>
  <line x1="98" y1="1200" x2="700" y2="1040" class="connector"/>
  <line x1="98" y1="1200" x2="700" y2="1100" class="connector"/>
  <line x1="98" y1="1200" x2="705" y2="1160" class="connector"/>
  <line x1="98" y1="1200" x2="700" y2="1220" class="connector"/>
  <line x1="98" y1="1200" x2="690" y2="1280" class="connector"/>
  <line x1="98" y1="1200" x2="695" y2="1340" class="connector"/>
  <line x1="98" y1="1200" x2="690" y2="1400" class="connector"/>
  <line x1="98" y1="1200" x2="705" y2="1460" class="connector"/>
  <line x1="98" y1="1200" x2="695" y2="1520" class="connector"/>

</svg>
